<svg xmlns="http://www.w3.org/2000/svg" viewBox="0 0 512 512" id="book-appointments"><rect width="452" height="452" x="30" y="52.5" fill="#f2f2f2" rx="30"></rect><path fill="#dedede" d="M452 52.5h-30a30 30 0 0 1 30 30v392a30 30 0 0 1-30 30h30a30 30 0 0 0 30-30v-392a30 30 0 0 0-30-30Z"></path><path fill="#f66" d="M452 52.5H60a30 30 0 0 0-30 30v65.966h452V82.5a30 30 0 0 0-30-30Z"></path><path fill="#ff4e4e" d="M452 52.5h-30a30 30 0 0 1 30 30v65.966h30V82.5a30 30 0 0 0-30-30Z"></path><rect width="39" height="91.78" x="109" y="7.5" fill="#676e87" rx="19.5"></rect><path fill="#595f74" d="M128.5 7.5A19.437 19.437 0 0 0 121 9a19.502 19.502 0 0 1 12 18v52.78a19.502 19.502 0 0 1-12 18 19.432 19.432 0 0 0 7.5 1.5 19.5 19.5 0 0 0 19.5-19.5V27a19.5 19.5 0 0 0-19.5-19.5Z"></path><rect width="39" height="91.78" x="364" y="7.5" fill="#676e87" rx="19.5"></rect><path fill="#595f74" d="M383.5 7.5A19.436 19.436 0 0 0 376 9a19.502 19.502 0 0 1 12 18v52.78a19.502 19.502 0 0 1-12 18 19.432 19.432 0 0 0 7.5 1.5 19.5 19.5 0 0 0 19.5-19.5V27a19.5 19.5 0 0 0-19.5-19.5Z"></path><circle cx="331.132" cy="295.8" r="30" fill="#3b3f4d"></circle><path fill="#313440" d="M452 45h-41.5V27a27 27 0 0 0-54 0v18h-201V27a27 27 0 0 0-54 0v18H60a37.542 37.542 0 0 0-37.5 37.5v392A37.542 37.542 0 0 0 60 512h392a37.542 37.542 0 0 0 37.5-37.5v-392A37.542 37.542 0 0 0 452 45Zm-80.5-18a12 12 0 0 1 24 0v52.78a12 12 0 0 1-24 0Zm-255 0a12 12 0 0 1 24 0v52.78a12 12 0 0 1-24 0Zm358 447.5A22.526 22.526 0 0 1 452 497H60a22.526 22.526 0 0 1-22.5-22.5V155.967h437Zm0-333.533h-437V82.5A22.526 22.526 0 0 1 60 60h41.5v19.78a27 27 0 0 0 54 0V60h201v19.78a27 27 0 0 0 54 0V60H452a22.526 22.526 0 0 1 22.5 22.5ZM437 466.994a7.5 7.5 0 1 0-7.5-7.5 7.5 7.5 0 0 0 7.5 7.5ZM338.632 295.8a7.5 7.5 0 1 0-7.5 7.5 7.5 7.5 0 0 0 7.5-7.5ZM204 352.393v32.958a67.316 67.316 0 1 0 134.632 0v-52.806a37.5 37.5 0 1 0-15 0v52.806a52.316 52.316 0 1 1-104.632 0v-32.958a70.096 70.096 0 0 0 62.5-69.593v-56.5a13.515 13.515 0 0 0-13.5-13.5h-13.389a15 15 0 1 0 0 15H266.5v55a55 55 0 0 1-110 0v-55h12.158a15 15 0 1 0 0-15H155a13.515 13.515 0 0 0-13.5 13.5v56.5a70.096 70.096 0 0 0 62.5 69.593ZM308.632 295.8a22.5 22.5 0 1 1 22.5 22.5 22.526 22.526 0 0 1-22.5-22.5ZM377 466.994a7.5 7.5 0 1 0-7.5-7.5 7.5 7.5 0 0 0 7.5 7.5Zm30 0a7.5 7.5 0 1 0-7.5-7.5 7.5 7.5 0 0 0 7.5 7.5Z"></path></svg>